<svg fill="none" height="512" viewBox="0 0 200 200" width="512" xmlns="http://www.w3.org/2000/svg" xmlns:xlink="http://www.w3.org/1999/xlink"><linearGradient id="paint0_linear_10_340" gradientUnits="userSpaceOnUse" x1="100" x2="100" y1="0" y2="200"><stop offset="0" stop-color="#a1d8ad"/><stop offset="1" stop-color="#4b945b"/></linearGradient><linearGradient id="paint1_linear_10_340" gradientUnits="userSpaceOnUse" x1="144" x2="144" y1="112" y2="176"><stop offset="0" stop-color="#5da36c"/><stop offset="1" stop-color="#32703f"/></linearGradient><path d="m0 40c0-22.0914 17.9086-40 40-40h120c22.091 0 40 17.9086 40 40v120c0 22.091-17.909 40-40 40h-120c-22.0914 0-40-17.909-40-40z" fill="url(#paint0_linear_10_340)"/><path clip-rule="evenodd" d="m100 91.3656c13.255 0 24-10.6031 24-23.6828 0-13.0796-10.745-23.6828-24-23.6828-13.2548 0-24 10.6032-24 23.6828 0 13.0797 10.7452 23.6828 24 23.6828zm-3.8516 7.9377c-25.2548.5384-44.1484 22.4407-44.1484 47.7017 0 4.968 4.0272 8.995 8.9951 8.995h78.0099c4.968 0 8.995-4.027 8.995-8.995 0-25.261-18.894-47.1633-44.148-47.7017-1.322-.0282-2.61-.0433-3.852-.0433-1.2422 0-2.5299.0151-3.8516.0433z" fill="#fff" fill-rule="evenodd"/><circle cx="144" cy="144" fill="url(#paint1_linear_10_340)" r="32"/><g clip-rule="evenodd" fill="#fff" fill-rule="evenodd"><path d="m125.574 156.765c.974 1.34 2.851 1.636 4.191.661l14.735-10.716 14.735 10.716c1.34.975 3.216.679 4.191-.661.974-1.34.678-3.217-.662-4.191l-16.5-12c-1.052-.765-2.477-.765-3.529 0l-16.499 12c-1.34.974-1.637 2.851-.662 4.191z"/><path d="m125.574 141.764c.974 1.34 2.851 1.637 4.191.662l14.735-10.717 14.735 10.717c1.34.975 3.216.678 4.191-.662.974-1.34.678-3.216-.662-4.19l-16.5-12c-1.052-.765-2.477-.765-3.529 0l-16.499 12c-1.34.974-1.637 2.85-.662 4.19z"/></g></svg>