<svg id="Layer_1" enable-background="new 0 0 512 512" viewBox="0 0 512 512" xmlns="http://www.w3.org/2000/svg" xmlns:xlink="http://www.w3.org/1999/xlink"><linearGradient id="lg1"><stop offset="0" stop-color="#ff567f"/><stop offset="1" stop-color="#f4166b"/></linearGradient><linearGradient id="SVGID_1_" gradientTransform="matrix(1 0 0 -1 0 514.28)" gradientUnits="userSpaceOnUse" x1="17.777" x2="495.847" xlink:href="#lg1" y1="506.907" y2="28.827"/><linearGradient id="SVGID_00000134936056098778113680000003255021509127986847_" gradientTransform="matrix(1 0 0 -1 0 514.28)" gradientUnits="userSpaceOnUse" x1="31.563" x2="509.633" xlink:href="#lg1" y1="520.693" y2="42.623"/><g id="Layer_2_00000073680018715563757240000009263377053101295232_"><g id="Layer_1_copy_11"><g id="_52"><path d="m231.5 230 .2-.6 7.8-15.5.3-.5c19.8-32.4 49.9-51 82.8-51 9.3-.1 18.5 1.6 27.2 4.9 4.7 1.8 9 3.8 13.1 5.8 24.9 12.6 36.6 29.1 43.5 47.2 2-8.3 3.4-16.8 4.1-25.4v-23.5c-5.7-70.6-52.2-107.4-92.4-111.3-6.6-.7-12.8-1-18.6-1-46.5 0-68.8 20.1-94.3 50.5-25.5-30.4-47.8-50.5-94.3-50.5-5.8 0-12 .3-18.6 1-40.1 3.9-86.6 40.8-92.3 111.4v23.5c5 63.9 50.9 141.9 181.9 238.6 13.9 10.2 32.9 10.2 46.8 0 9.1-6.7 17.7-13.3 26-19.8-34.5-77.6-42-137.9-23.2-183.8z" fill="url(#SVGID_1_)"/><path d="m482.2 251.8c-3.8-2.4-7.5-4.5-11.1-6.3-28.4-14.4-48.2-8.9-73.2 1.8-6.2-26.5-13.6-45.6-42-60-3.6-1.8-7.4-3.5-11.7-5.2-25.8-10-65.6-1.9-90.8 39.6l-7.3 14.4c-16.7 40.6-12.7 102.4 37.5 202 5.3 10.6 16.9 16.4 28.6 14.4 109.9-18.7 162.1-52.2 184.8-89.7l7.3-14.4c18.3-44.9 1.2-81.8-22.1-96.6z" fill="url(#SVGID_00000134936056098778113680000003255021509127986847_)"/></g></g></g></svg>