<svg id="Layer_1" height="512" viewBox="0 0 32 32" width="512" xmlns="http://www.w3.org/2000/svg" data-name="Layer 1"><g fill="#156cdd"><path d="m15 6v6a2.981 2.981 0 0 1 -.44 1.56 3.012 3.012 0 0 1 -2.56 1.44h-6a3.009 3.009 0 0 1 -3-3v-6a3.012 3.012 0 0 1 1.44-2.56 2.981 2.981 0 0 1 1.56-.44h6a3.009 3.009 0 0 1 3 3z"/><path d="m29 6v6a2.981 2.981 0 0 1 -.44 1.56 3.012 3.012 0 0 1 -2.56 1.44h-6a3.009 3.009 0 0 1 -3-3v-6a3.012 3.012 0 0 1 1.44-2.56 2.981 2.981 0 0 1 1.56-.44h6a3.009 3.009 0 0 1 3 3z"/><path d="m15 20v6a2.981 2.981 0 0 1 -.44 1.56 3.012 3.012 0 0 1 -2.56 1.44h-6a3.009 3.009 0 0 1 -3-3v-6a3.012 3.012 0 0 1 1.44-2.56 2.981 2.981 0 0 1 1.56-.44h6a3.009 3.009 0 0 1 3 3z"/></g><path d="m29 20v6a2.981 2.981 0 0 1 -.44 1.56 3.012 3.012 0 0 1 -2.56 1.44h-6a3.009 3.009 0 0 1 -3-3v-6a3.012 3.012 0 0 1 1.44-2.56 2.981 2.981 0 0 1 1.56-.44h6a3.009 3.009 0 0 1 3 3z" fill="#ccd8e5"/><path d="m15 6v6a2.981 2.981 0 0 1 -.44 1.56 2.981 2.981 0 0 1 -1.56.44h-6a3.009 3.009 0 0 1 -3-3v-6a2.981 2.981 0 0 1 .44-1.56 2.981 2.981 0 0 1 1.56-.44h6a3.009 3.009 0 0 1 3 3z" fill="#0795ff"/><path d="m29 6v6a2.981 2.981 0 0 1 -.44 1.56 2.981 2.981 0 0 1 -1.56.44h-6a3.009 3.009 0 0 1 -3-3v-6a2.981 2.981 0 0 1 .44-1.56 2.981 2.981 0 0 1 1.56-.44h6a3.009 3.009 0 0 1 3 3z" fill="#0795ff"/><path d="m15 20v6a2.981 2.981 0 0 1 -.44 1.56 2.981 2.981 0 0 1 -1.56.44h-6a3.009 3.009 0 0 1 -3-3v-6a2.981 2.981 0 0 1 .44-1.56 2.981 2.981 0 0 1 1.56-.44h6a3.009 3.009 0 0 1 3 3z" fill="#0795ff"/><path d="m29 20v6a2.981 2.981 0 0 1 -.44 1.56 2.981 2.981 0 0 1 -1.56.44h-6a3.009 3.009 0 0 1 -3-3v-6a2.981 2.981 0 0 1 .44-1.56 2.981 2.981 0 0 1 1.56-.44h6a3.009 3.009 0 0 1 3 3z" fill="#dfe8f4"/></svg>