<?xml version="1.0" encoding="UTF-8"?>
<svg version="1.1" xmlns="http://www.w3.org/2000/svg" width="500" height="500">
<path d="M0 0 C1.57605655 -0.00418028 3.15211009 -0.00966159 4.72815812 -0.01631981 C9.02947932 -0.03070208 13.33060774 -0.02655244 17.63193917 -0.019153 C22.28236425 -0.01440566 26.93274856 -0.02694498 31.5831604 -0.03717041 C40.68222349 -0.0543331 49.78121745 -0.05520368 58.88029252 -0.04995751 C66.27882563 -0.04590988 73.67733837 -0.0473664 81.07587051 -0.05270576 C82.6576505 -0.0538284 82.6576505 -0.0538284 84.27138565 -0.05497371 C86.41390101 -0.05650525 88.55641636 -0.05804359 90.69893171 -0.05958868 C110.77375635 -0.07330456 130.84854198 -0.06788243 150.92336573 -0.05640347 C169.27165233 -0.04647194 187.61983807 -0.05941201 205.96810912 -0.08333766 C224.82847407 -0.10774494 243.68879209 -0.11733253 262.54917252 -0.11068493 C273.12970356 -0.10719635 283.71015705 -0.10940095 294.29067612 -0.12693596 C303.29748085 -0.14167828 312.30415343 -0.14226682 321.31095563 -0.12486505 C325.90211031 -0.11636945 330.4930291 -0.11417018 335.0841713 -0.1295166 C339.29490794 -0.14341671 343.50520779 -0.13853275 347.71591951 -0.11927737 C349.23127643 -0.11553329 350.74666879 -0.1183929 352.26199399 -0.12888902 C371.63985459 -0.2534654 388.73613037 5.73755892 403.3989563 18.6650238 C417.11045459 32.24018617 425.35408198 49.45537796 425.54952684 68.79514987 C425.55503745 70.94312416 425.54598477 73.09076662 425.53663635 75.23872375 C425.54081663 76.8147803 425.54629794 78.39083384 425.55295616 79.96688187 C425.56733843 84.26820308 425.56318879 88.56933149 425.55578935 92.87066293 C425.55104201 97.52108801 425.56358133 102.17147232 425.57380676 106.82188416 C425.59096945 115.92094725 425.59184003 125.0199412 425.58659386 134.11901627 C425.58254623 141.51754939 425.58400276 148.91606213 425.58934212 156.31459427 C425.59009054 157.36911426 425.59083896 158.42363426 425.59161006 159.5101094 C425.5931416 161.65262476 425.59467995 163.79514011 425.59622503 165.93765546 C425.60994091 186.01248011 425.60451878 206.08726574 425.59303982 226.16208948 C425.58310829 244.51037608 425.59604836 262.85856183 425.61997401 281.20683287 C425.64438129 300.06719783 425.65396888 318.92751585 425.64732128 337.78789628 C425.6438327 348.36842731 425.6460373 358.94888081 425.66357231 369.52939987 C425.67831464 378.53620461 425.67890317 387.54287718 425.6615014 396.54967938 C425.6530058 401.14083406 425.65080653 405.73175285 425.66615295 410.32289505 C425.68005306 414.53363169 425.6751691 418.74393155 425.65591372 422.95464326 C425.65216965 424.47000019 425.65502926 425.98539255 425.66552537 427.50071774 C425.79010175 446.87857835 419.79907743 463.97485412 406.87161255 478.63768005 C393.29645018 492.34917834 376.08125839 500.59280573 356.74148648 500.7882506 C354.59351219 500.79376121 352.44586973 500.78470852 350.2979126 500.77536011 C348.72185605 500.77954039 347.14580251 500.7850217 345.56975448 500.79167992 C341.26843328 500.80606219 336.96730486 500.80191254 332.66597342 500.79451311 C328.01554834 500.78976577 323.36516403 500.80230509 318.7147522 500.81253052 C309.61568911 500.82969321 300.51669515 500.83056379 291.41762008 500.82531761 C284.01908697 500.82126998 276.62057423 500.82272651 269.22204208 500.82806587 C267.64026209 500.82918851 267.64026209 500.82918851 266.02652695 500.83033382 C263.88401159 500.83186535 261.74149624 500.8334037 259.59898089 500.83494879 C239.52415625 500.84866466 219.44937062 500.84324254 199.37454687 500.83176357 C181.02626027 500.82183205 162.67807453 500.83477212 144.32980348 500.85869776 C125.46943852 500.88310504 106.60912051 500.89269263 87.74874008 500.88604504 C77.16820904 500.88255646 66.58775554 500.88476105 56.00723648 500.90229607 C47.00043175 500.91703839 37.99375917 500.91762693 28.98695697 500.90022516 C24.39580229 500.89172956 19.8048835 500.88953029 15.2137413 500.90487671 C11.00300466 500.91877682 6.79270481 500.91389285 2.58199309 500.89463747 C1.06663617 500.8908934 -0.4487562 500.89375301 -1.96408139 500.90424912 C-21.341942 501.0288255 -38.43821777 495.03780119 -53.1010437 482.1103363 C-66.81254199 468.53517394 -75.05616938 451.31998215 -75.25161425 431.98021024 C-75.25712485 429.83223595 -75.24807217 427.68459349 -75.23872375 425.53663635 C-75.24290404 423.9605798 -75.24838534 422.38452627 -75.25504357 420.80847824 C-75.26942583 416.50715703 -75.26527619 412.20602861 -75.25787675 407.90469718 C-75.25312942 403.2542721 -75.26566873 398.60388779 -75.27589417 393.95347595 C-75.29305686 384.85441286 -75.29392743 375.7554189 -75.28868126 366.65634383 C-75.28463363 359.25781072 -75.28609016 351.85929798 -75.29142952 344.46076584 C-75.29217794 343.40624584 -75.29292636 342.35172585 -75.29369747 341.26525071 C-75.295229 339.12273535 -75.29676735 336.98021999 -75.29831243 334.83770464 C-75.31202831 314.76288 -75.30660618 294.68809437 -75.29512722 274.61327063 C-75.28519569 256.26498403 -75.29813577 237.91679828 -75.32206141 219.56852724 C-75.34646869 200.70816228 -75.35605628 181.84784426 -75.34940869 162.98746383 C-75.34592011 152.40693279 -75.3481247 141.8264793 -75.36565971 131.24596024 C-75.38040204 122.2391555 -75.38099057 113.23248292 -75.3635888 104.22568072 C-75.3550932 99.63452605 -75.35289394 95.04360726 -75.36824036 90.45246506 C-75.38214047 86.24172841 -75.3772565 82.03142856 -75.35800112 77.82071684 C-75.35425705 76.30535992 -75.35711666 74.78996756 -75.36761277 73.27464236 C-75.49218915 53.89678176 -69.50116483 36.80050598 -56.57369995 22.13768005 C-40.62987107 6.03372663 -22.19309917 -0.09658957 0 0 Z " fill="#080A95" transform="translate(74.85104370117188,-0.3876800537109375)"/>
<path d="M0 0 C3.06441416 1.33659071 5.77959312 3.03113327 8.5625 4.875 C9.35060059 5.37676758 10.13870117 5.87853516 10.95068359 6.39550781 C13.31496139 7.90937058 15.6603583 9.44838915 18 11 C18.62793457 11.41604492 19.25586914 11.83208984 19.90283203 12.26074219 C22.23816714 13.81417155 24.56885388 15.37419238 26.89282227 16.94458008 C40.53355652 26.12113897 54.60724598 34.73670275 68.7734375 43.078125 C70.86329015 44.32292828 72.93302033 45.60242257 74.9765625 46.921875 C89.56577164 56.12369424 105.23301224 59.0808138 122.25 56.3125 C144.97386182 50.70628409 165.4991062 34.30739395 185 22 C186.78382137 20.87625002 188.56767424 19.75255004 190.3515625 18.62890625 C192.00528733 17.58606277 193.65893621 16.54309883 195.3125 15.5 C196.08980469 15.01015625 196.86710937 14.5203125 197.66796875 14.015625 C200.90755928 11.97045741 204.13373802 9.91214634 207.3359375 7.80859375 C219.57429388 -0.22177982 219.57429388 -0.22177982 226.37890625 0.21875 C230.29004986 1.06257818 232.41588458 2.22865151 235.6875 4.5 C242.79882563 9.29344122 250.09830145 13.75481849 257.4375 18.1875 C258.66001233 18.92756884 259.88242402 19.66780396 261.10473633 20.40820312 C264.15172149 22.2534568 267.19966096 24.09712732 270.24786377 25.94036865 C278.5120877 30.93828525 286.76822209 35.94879352 295 41 C295.75104004 41.45906738 296.50208008 41.91813477 297.27587891 42.39111328 C299.25308098 43.60459314 301.22182615 44.83045972 303.1875 46.0625 C304.23292969 46.71347656 305.27835937 47.36445313 306.35546875 48.03515625 C310.09529195 50.81378412 312.6948469 53.21490374 313.50057125 57.9282608 C313.50088518 59.55977207 313.50088518 59.55977207 313.50120544 61.22424316 C313.51103958 62.47759964 313.52087372 63.73095612 313.53100586 65.02229309 C313.5216347 66.40353667 313.51185542 67.78477753 313.50170898 69.16601562 C313.5054937 70.62660747 313.510995 72.08719572 313.51808167 73.54777527 C313.5320339 77.50858528 313.52086839 81.46896078 313.50437045 85.42974663 C313.49051081 89.57674366 313.49698107 93.7237157 313.50050354 97.87072754 C313.50320494 104.83462519 313.48973613 111.79835041 313.46655273 118.76220703 C313.43994338 126.81081787 313.43819613 134.85914042 313.4499411 142.90778017 C313.46072428 150.65362005 313.45452758 158.39935576 313.44038582 166.14518738 C313.43463069 169.44014451 313.43470497 172.73502528 313.43945122 176.02998352 C313.44422729 179.91081855 313.43409346 183.79133834 313.41249657 187.67211342 C313.40693708 189.0955073 313.40645573 190.51893152 313.41144943 191.9423275 C313.41741522 193.88681094 313.4030459 195.83132496 313.38768005 197.77575684 C313.38403521 199.4072681 313.38403521 199.4072681 313.38031673 201.0717392 C312.81606257 205.41623207 311.05219156 208.02157832 307.8828125 210.96875 C304.00409125 213.70172432 299.96474028 216.09815138 295.875 218.5 C289.14784062 222.49253181 282.47352679 226.54820906 275.875 230.75 C268.2944244 235.57356473 260.65890521 240.3018431 253 245 C243.0318581 251.11824228 233.11318355 257.30715398 223.24023438 263.57763672 C204.53635817 275.45304896 185.80296305 287.28885014 166.86914062 298.79492188 C160.52230203 302.65994735 154.23051247 306.61061604 147.9375 310.5625 C139.42908615 315.9026075 130.85809253 321.10596145 122.16796875 326.14453125 C120.07579953 327.3699078 118.01739508 328.65506995 116 330 C113.765625 330.30078125 113.765625 330.30078125 111.25 330.3125 C110.43015625 330.32925781 109.6103125 330.34601563 108.765625 330.36328125 C100.3728084 329.260835 93.11342862 323.58497941 86.0625 319.25 C84.80956689 318.48419563 83.55647195 317.71865597 82.30322266 316.95336914 C73.48073908 311.55778142 64.70123983 306.09375038 55.94165039 300.59667969 C48.65271318 296.02337085 41.33331233 291.50176647 34 287 C22.61947572 280.01065305 11.28491962 272.95029335 -0.03222656 265.85888672 C-5.01904546 262.73535602 -10.00968154 259.61793541 -15 256.5 C-20.97843132 252.76469476 -26.95612052 249.02823704 -32.9296875 245.28515625 C-44.589695 237.98244556 -56.27822018 230.72915282 -68.00927734 223.54125977 C-71.01007683 221.70039112 -74.00627505 219.85234871 -77 218 C-78.53188965 217.0560437 -78.53188965 217.0560437 -80.09472656 216.09301758 C-81.56570801 215.1749231 -81.56570801 215.1749231 -83.06640625 214.23828125 C-83.94111572 213.69469971 -84.8158252 213.15111816 -85.71704102 212.59106445 C-89.4093615 210.01777255 -91.97590591 207.04818818 -94 203 C-94.10006153 201.1153397 -94.13510007 199.22710511 -94.14044189 197.33979797 C-94.14615204 196.13552658 -94.15186218 194.93125519 -94.15774536 193.69049072 C-94.15899079 192.34875499 -94.16011587 191.00701913 -94.16113281 189.6652832 C-94.16576025 188.25764333 -94.17078481 186.85000471 -94.17617798 185.44236755 C-94.18931432 181.61156012 -94.19574976 177.78077023 -94.20018864 173.94994378 C-94.20311841 171.55616218 -94.20722312 169.16238538 -94.21169281 166.76860619 C-94.22537328 159.27801101 -94.23503627 151.78742679 -94.2388947 144.29681998 C-94.2433718 135.65253364 -94.26090112 127.0084057 -94.2898953 118.36416751 C-94.31152884 111.6821165 -94.32159993 105.00010999 -94.32293582 98.31802434 C-94.32398299 94.32768525 -94.3298716 90.33749495 -94.34775543 86.34719276 C-94.36426429 82.59037455 -94.36637809 78.83381649 -94.35761642 75.07697487 C-94.35648182 73.04701468 -94.37017892 71.01706301 -94.3843689 68.9871521 C-94.35061289 61.6023078 -94.24279221 55.83616809 -89.30419922 49.99389648 C-84.20623578 45.75046273 -78.89080075 42.32903229 -73.125 39.0625 C-71.16144972 37.92674215 -69.19926614 36.78861901 -67.23828125 35.6484375 C-66.21686035 35.05514648 -65.19543945 34.46185547 -64.14306641 33.85058594 C-58.81456846 30.71325376 -53.56770914 27.44555465 -48.3125 24.1875 C-45.02322242 22.16251065 -41.73226314 20.14027911 -38.44091797 18.11865234 C-36.0713424 16.66183242 -33.70652615 15.19760942 -31.34423828 13.72900391 C-28.28826426 11.83061521 -25.22136201 9.95106928 -22.14682007 8.08291626 C-20.97904212 7.36918367 -19.81503647 6.64923658 -18.65518188 5.92269897 C-6.98528267 -1.378197 -6.98528267 -1.378197 0 0 Z " fill="#F8495B" transform="translate(140,95)"/>
<path d="M0 0 C2.70118223 2.70118223 2.25358069 4.08376273 2.26069641 7.86347961 C2.26778122 9.1127121 2.27486603 10.36194458 2.28216553 11.64903259 C2.27987147 13.04116857 2.27736173 14.43330421 2.2746582 15.82543945 C2.27900349 17.28558616 2.28418603 18.74573058 2.29014587 20.20587158 C2.30356947 24.17912821 2.30411064 28.15228992 2.30158257 32.12556481 C2.30051475 35.44062958 2.30539158 38.755675 2.310188 42.07073563 C2.32129562 49.89246796 2.32171409 57.71415227 2.31567383 65.53588867 C2.30963709 73.60657199 2.3219345 81.67708083 2.3432439 89.74773437 C2.36085843 96.67349685 2.36686134 103.59920381 2.36360615 110.52498788 C2.36179231 114.66280269 2.36443917 118.80049317 2.37832069 122.93828773 C2.39089142 126.83136155 2.38896223 130.72416366 2.37590981 134.61723328 C2.3735425 136.04547403 2.37628427 137.47373385 2.38453293 138.90195274 C2.39498834 140.85313333 2.38510378 142.8043912 2.3742218 144.75556946 C2.37438954 145.84714009 2.37455729 146.93871073 2.37473011 148.06335926 C1.81930881 152.41601941 0.05676618 155.01732444 -3.1171875 157.96875 C-6.99590875 160.70172432 -11.03525972 163.09815138 -15.125 165.5 C-21.85215938 169.49253181 -28.52647321 173.54820906 -35.125 177.75 C-42.7055756 182.57356473 -50.34109479 187.3018431 -58 192 C-67.9681419 198.11824228 -77.88681645 204.30715398 -87.75976562 210.57763672 C-106.46364183 222.45304896 -125.19703695 234.28885014 -144.13085938 245.79492188 C-150.47769797 249.65994735 -156.76948753 253.61061604 -163.0625 257.5625 C-171.57091385 262.9026075 -180.14190747 268.10596145 -188.83203125 273.14453125 C-190.92420047 274.3699078 -192.98260492 275.65506995 -195 277 C-197.33199388 277.07905064 -199.66832622 277.08798769 -202 277 C-202.23372393 260.80589206 -202.40999995 244.61233202 -202.51812172 228.4169445 C-202.56966216 220.89685526 -202.63990958 213.37781456 -202.75439453 205.85839844 C-202.85414717 199.30347529 -202.9185995 192.74931143 -202.94088495 186.19365036 C-202.95391124 182.72276746 -202.98445528 179.25405638 -203.05730057 175.7838707 C-203.13801201 171.90742428 -203.13989456 168.03309144 -203.13525391 164.15576172 C-203.17120667 163.00849106 -203.20715942 161.8612204 -203.24420166 160.67918396 C-203.2027675 157.48415489 -203.07825874 155.01046438 -202 152 C-198.96973648 149.22609697 -195.73033081 147.65145827 -192 146 C-190.515 145.01 -190.515 145.01 -189 144 C-189 147.3 -189 150.6 -189 154 C-182.73 153.67 -176.46 153.34 -170 153 C-170.03778564 151.25460937 -170.07557129 149.50921875 -170.11450195 147.7109375 C-170.22447401 141.91939549 -170.27375202 136.12900988 -170.28240681 130.33656311 C-170.2898425 126.82649715 -170.32099375 123.32010299 -170.40795898 119.81103516 C-170.97528272 95.76123588 -170.97528272 95.76123588 -166.8190918 90.35742188 C-157.5302949 83.48552618 -144.15005294 85.12584541 -133.1875 85.5 C-131.12702287 85.5402076 -129.06646964 85.57669543 -127.00585938 85.609375 C-122.00199719 85.696728 -117.00185633 85.83432287 -112 86 C-116.18173224 92.3849326 -116.18173224 92.3849326 -118.69921875 95.26171875 C-119.18132812 95.81730469 -119.6634375 96.37289062 -120.16015625 96.9453125 C-120.66417969 97.52023438 -121.16820312 98.09515625 -121.6875 98.6875 C-125.35199344 102.91234074 -128.97837724 107.15430464 -132.5 111.5 C-136.49932147 116.42617151 -140.60917117 121.24927593 -144.75195312 126.0546875 C-145.23083984 126.61027344 -145.70972656 127.16585937 -146.203125 127.73828125 C-146.62239258 128.22337158 -147.04166016 128.70846191 -147.47363281 129.20825195 C-154.94806506 137.90584944 -154.94806506 137.90584944 -155 153 C-132.23 153 -109.46 153 -86 153 C-86 147.72 -86 142.44 -86 137 C-100.85 137 -115.7 137 -131 137 C-127.31465961 132.08621281 -123.67976119 127.32355629 -119.6875 122.6875 C-116.26629776 118.6814967 -112.88162678 114.6540781 -109.5625 110.5625 C-105.53923409 105.61859487 -101.40989643 100.77291068 -97.24829102 95.94555664 C-96.2898509 94.83363714 -95.33675926 93.71708219 -94.3894043 92.59570312 C-93.4808142 91.55220552 -92.53714463 90.53800656 -91.55786133 89.56054688 C-87.46924166 85.30025923 -87.23245073 81.7238034 -87.1875 76.125 C-87.125625 73.44375 -87.06375 70.7625 -87 68 C-98.22 68 -109.44 68 -121 68 C-117.23097569 64.98478055 -114.19893096 62.88143167 -110.01953125 60.6796875 C-108.86525635 60.06746338 -107.71098145 59.45523926 -106.52172852 58.82446289 C-105.91676544 58.50655792 -105.31180237 58.18865295 -104.68850708 57.8611145 C-101.50013834 56.18516313 -98.32113493 54.49158396 -95.140625 52.80078125 C-94.19939537 52.30133247 -94.19939537 52.30133247 -93.239151 51.79179382 C-88.48436588 49.26641463 -83.76050962 46.69172398 -79.0625 44.0625 C-78.38372803 43.68311279 -77.70495605 43.30372559 -77.00561523 42.9128418 C-75.53150393 42.08883249 -74.05746805 41.26468824 -72.58349609 40.44042969 C-67.02287644 37.3401031 -61.44852195 34.26454951 -55.875 31.1875 C-55.25339996 30.84411591 -54.63179993 30.50073181 -53.99136353 30.14694214 C-45.43742942 25.42288773 -36.85535585 20.75491211 -28.25 16.125 C-18.69242924 10.97898182 -9.29970166 5.59751064 0 0 Z " fill="#F20571" transform="translate(451,148)"/>
<path d="M0 0 C3.92848397 0.60083739 6.88354816 1.80852488 10.3671875 3.703125 C11.40520508 4.26435059 12.44322266 4.82557617 13.51269531 5.40380859 C14.62225586 6.01305176 15.73181641 6.62229492 16.875 7.25 C18.04764766 7.88790753 19.22050244 8.52543444 20.39355469 9.16259766 C28.6464045 13.65734764 36.82620138 18.27796744 44.98681641 22.93774414 C54.63390989 28.41810008 64.43045829 33.61302054 74.23925781 38.79638672 C75.17922607 39.29394722 75.17922607 39.29394722 76.13818359 39.80155945 C77.84810247 40.70615863 79.55926512 41.60840565 81.27050781 42.51049805 C84 44 84 44 87 46 C87.36914349 47.8703022 87.36914349 47.8703022 87.36076355 50.18875122 C87.36488754 51.06657257 87.36901154 51.94439392 87.3732605 52.84881592 C87.36247467 53.81410217 87.35168884 54.77938843 87.34057617 55.77392578 C87.34123329 57.29592087 87.34123329 57.29592087 87.34190369 58.84866333 C87.33980772 62.2144064 87.31643831 65.57965607 87.29296875 68.9453125 C87.28737568 71.27415698 87.28310422 73.60300498 87.28010559 75.93185425 C87.26863413 82.07059421 87.23914705 88.20912227 87.20599365 94.34777832 C87.16995624 101.70821249 87.1561426 109.06871739 87.13863373 116.42921448 C87.10951121 127.61962383 87.05203956 138.80956797 87 150 C105.15 150 123.3 150 142 150 C142 143.73 142 137.46 142 131 C130.78 131 119.56 131 108 131 C108 106.91 108 82.82 108 58 C111.7709238 59.50836952 115.13122114 61.06123744 118.68359375 62.9765625 C119.77043457 63.56163574 120.85727539 64.14670898 121.97705078 64.74951172 C123.11899902 65.36842285 124.26094727 65.98733398 125.4375 66.625 C126.61179963 67.2593084 127.78611608 67.89358566 128.96044922 68.52783203 C137.04097169 72.90492276 145.06916572 77.35685702 153 82 C153 85.96553031 152.62008198 86.98857864 151 90.375 C147.14988449 100.57780611 147.14485007 114.80750491 150.5 125.1875 C155.67898076 136.46898605 163.5573184 145.15619161 175.125 149.9375 C183.56183466 152.39761458 193.48630572 151.41894905 202 150 C202 190.92 202 231.84 202 274 C195.72986653 273.10426665 193.78270913 272.6447187 188.84375 269.41796875 C187.70461769 268.68638932 186.56528984 267.95511429 185.42578125 267.22412109 C184.8548877 266.85204529 184.28399414 266.47996948 183.69580078 266.09661865 C181.08641501 264.4092146 178.43314108 262.79530495 175.78125 261.17578125 C157.25011918 249.77952982 138.74167588 238.34935635 120.3034668 226.80322266 C112.7873913 222.10258771 105.24262022 217.45006666 97.6875 212.8125 C88.68666356 207.28593748 79.72933677 201.6976422 70.80859375 196.04296875 C55.61525497 186.41597733 40.32833384 176.93903182 24.99194336 167.54199219 C21.99073214 165.70088699 18.99412857 163.85259845 16 162 C14.46811035 161.0560437 14.46811035 161.0560437 12.90527344 160.09301758 C11.43429199 159.1749231 11.43429199 159.1749231 9.93359375 158.23828125 C9.05888428 157.69469971 8.1841748 157.15111816 7.28295898 156.59106445 C3.5906385 154.01777255 1.02409409 151.04818818 -1 147 C-1.09583796 145.10624483 -1.12630675 143.20906002 -1.12698364 141.31288147 C-1.12980347 140.10282944 -1.13262329 138.8927774 -1.13552856 137.64605713 C-1.13358408 136.29797348 -1.1315359 134.94988999 -1.12939453 133.60180664 C-1.13074898 132.18767756 -1.13252915 130.77354883 -1.13470459 129.35942078 C-1.13927419 125.51234427 -1.13749119 121.6652945 -1.1343255 117.81821752 C-1.13179898 113.79705942 -1.13414031 109.77590366 -1.13571167 105.75474548 C-1.13753272 98.99998563 -1.13512897 92.24523671 -1.13037109 85.49047852 C-1.1249308 77.67656741 -1.1266897 69.86268239 -1.1321975 62.04877192 C-1.1367331 55.34640246 -1.13737692 48.64404086 -1.13475883 41.94167036 C-1.13319824 37.93586673 -1.13299631 33.93007538 -1.13629532 29.92427254 C-1.13918042 26.15768396 -1.13718652 22.39112907 -1.13140106 18.62454414 C-1.13007681 17.24061641 -1.13046192 15.85668586 -1.13266373 14.47275925 C-1.13538835 12.58654124 -1.13136893 10.70031705 -1.12698364 8.81410217 C-1.12660662 7.75755967 -1.12622959 6.70101717 -1.12584114 5.61245823 C-1 3 -1 3 0 0 Z " fill="#F25B09" transform="translate(47,151)"/>
<path d="M0 0 C5.55596591 3.63409091 5.55596591 3.63409091 7.421875 5.5 C7.751875 2.53 8.081875 -0.44 8.421875 -3.5 C14.691875 -3.5 20.961875 -3.5 27.421875 -3.5 C27.421875 24.88 27.421875 53.26 27.421875 82.5 C21.151875 82.5 14.881875 82.5 8.421875 82.5 C7.926875 78.045 7.926875 78.045 7.421875 73.5 C6.308125 74.4075 5.194375 75.315 4.046875 76.25 C-5.61396011 83.35256518 -14.86284154 84.62579301 -26.578125 83.5 C-37.02387235 81.40823582 -45.1501968 75.12269539 -51.453125 66.6875 C-52.5365757 64.98420279 -53.5802848 63.25482242 -54.578125 61.5 C-55.01253906 60.73816406 -55.44695312 59.97632813 -55.89453125 59.19140625 C-60.66382084 48.80532265 -60.57138673 33.11977847 -57.078125 22.3125 C-51.6421574 10.47121393 -43.52809989 2.58642257 -31.828125 -2.9375 C-21.55977024 -6.68318916 -9.40207457 -5.47029793 0 0 Z " fill="#FEFCFC" transform="translate(253.578125,219.5)"/>
<path d="M0 0 C22.44 0 44.88 0 68 0 C68 17 68 17 64.0625 22.375 C62.38476949 23.92729272 60.69713455 25.46894589 59 27 C57.53005578 28.72283785 56.09281587 30.47405137 54.6875 32.25 C51.19566981 36.56451269 47.62415948 40.79702532 44 45 C37.50467826 52.53926788 31.21689855 60.22887682 25 68 C46.78 68.495 46.78 68.495 69 69 C69 74.28 69 79.56 69 85 C46.23 85 23.46 85 0 85 C0 69 0 69 3.9375 63.6875 C5.61642819 62.11579308 7.30405001 60.55332422 9 59 C10.46864422 57.27605383 11.90593091 55.52495624 13.3125 53.75 C16.80433184 49.43548526 20.37588476 45.20301456 24 41 C30.18778046 33.81628154 36.3092335 26.58768867 42 19 C28.14 18.67 14.28 18.34 0 18 C0 12.06 0 6.12 0 0 Z " fill="#FEFAFC" transform="translate(296,216)"/>
<path d="M0 0 C6.6 0 13.2 0 20 0 C20 31.68 20 63.36 20 96 C31.22 96 42.44 96 54 96 C54 102.27 54 108.54 54 115 C36.18 115 18.36 115 0 115 C0 77.05 0 39.1 0 0 Z " fill="#FEFDFC" transform="translate(135,186)"/>
<path d="M0 0 C1.051875 0.5775 2.10375 1.155 3.1875 1.75 C4.198125 2.265625 5.20875 2.78125 6.25 3.3125 C11.14273232 7.37242682 15.09047001 13.38722606 16.1875 19.75 C17.06594371 29.5712887 15.36645128 36.79457595 10.0625 45.0625 C4.62711361 50.14340467 -0.98036882 53.03234943 -8.5 53.1875 C-17.94607472 52.64431758 -23.48499371 49.77377629 -29.8125 42.75 C-35.17992107 35.5312492 -34.79292885 26.30725184 -33.8125 17.75 C-31.32662757 9.18143973 -26.09163668 4.2187327 -18.5625 -0.125 C-12.4841925 -1.94849225 -5.99693066 -2.42004741 0 0 Z " fill="#F24128" transform="translate(247.8125,233.25)"/>
<path d="M0 0 C1.5778125 0.86625 1.5778125 0.86625 3.1875 1.75 C4.198125 2.265625 5.20875 2.78125 6.25 3.3125 C10.33687776 6.70373899 13.22633071 10.79747522 15.1875 15.75 C15.17578125 18.35546875 15.17578125 18.35546875 14.1875 20.75 C11.859375 22.5859375 11.859375 22.5859375 8.9375 24.125 C7.98359375 24.64835937 7.0296875 25.17171875 6.046875 25.7109375 C2.70466294 26.92545718 1.56226179 26.71114885 -1.8125 25.75 C-3.78681088 24.75225406 -5.72383756 23.6790156 -7.62890625 22.5546875 C-8.72267578 21.92175781 -9.81644531 21.28882813 -10.94335938 20.63671875 C-13.23743916 19.29186834 -15.52909986 17.94288313 -17.81835938 16.58984375 C-18.91083984 15.95949219 -20.00332031 15.32914063 -21.12890625 14.6796875 C-22.12349854 14.09429199 -23.11809082 13.50889648 -24.14282227 12.90576172 C-26.69545226 11.52798955 -26.69545226 11.52798955 -29.16772461 12.06689453 C-29.71050049 12.29231934 -30.25327637 12.51774414 -30.8125 12.75 C-29.41303672 7.46313871 -26.11002891 4.80836413 -21.8125 1.75 C-15.22502618 -2.05046567 -7.15902742 -2.88900885 0 0 Z " fill="#F64E4E" transform="translate(247.8125,233.25)"/>
<path d="M0 0 C0.5999657 9.6994455 -0.35768078 17.71577225 -6.5625 25.5 C-9 28 -9 28 -12 30 C-12.99 30 -13.98 30 -15 30 C-15 22.41 -15 14.82 -15 7 C-12.89625 5.845 -10.7925 4.69 -8.625 3.5 C-7.9645166 3.13455078 -7.3040332 2.76910156 -6.62353516 2.39257812 C-2.22222222 0 -2.22222222 0 0 0 Z " fill="#EE0F3C" transform="translate(264,253)"/>
</svg>
