<svg id="Layer_1" enable-background="new 0 0 512 512" height="512" viewBox="0 0 512 512" width="512" xmlns="http://www.w3.org/2000/svg"><g id="Layer_2_00000141413622185910929590000000074088626417050301_"><g id="users"><path d="m258.5 296.6h131.6c67.3 0 121.9 54.6 121.9 121.9 0 27.1-22 49.1-49.1 49.1h-277.1c-27.1 0-49.1-22-49.1-49.1 0-67.4 54.5-121.9 121.8-121.9z" fill="#95baf9"/><circle cx="324.3" cy="153.1" fill="#95baf9" r="108.7"/><g fill="#2c5ede"><path d="m121.9 296.6h131.6c67.3 0 121.9 54.6 121.9 121.9 0 27.1-22 49.1-49.1 49.1h-277.2c-27.1-.1-49.1-22-49.1-49.2 0-67.3 54.6-121.8 121.9-121.8z"/><circle cx="187.7" cy="153.1" r="108.7"/></g></g></g></svg>