<svg fill="none" height="512" viewBox="0 0 200 200" width="512" xmlns="http://www.w3.org/2000/svg" xmlns:xlink="http://www.w3.org/1999/xlink"><linearGradient id="paint0_linear_10_305" gradientUnits="userSpaceOnUse" x1="100" x2="100" y1="0" y2="200"><stop offset="0" stop-color="#a1d8ad"/><stop offset="1" stop-color="#4b945b"/></linearGradient><linearGradient id="paint1_linear_10_305" gradientUnits="userSpaceOnUse" x1="144" x2="144" y1="112" y2="176"><stop offset="0" stop-color="#5da36c"/><stop offset="1" stop-color="#32703f"/></linearGradient><rect fill="url(#paint0_linear_10_305)" height="200" rx="40" width="200"/><path d="m100 91.3656c13.255 0 24-10.6031 24-23.6828 0-13.0796-10.745-23.6828-24-23.6828-13.2548 0-24 10.6032-24 23.6828 0 13.0797 10.7452 23.6828 24 23.6828z" fill="#fff"/><path d="m96.1484 99.3033c-25.2548.5384-44.1484 22.4407-44.1484 47.7017 0 4.968 4.0272 8.995 8.9951 8.995h78.0099c4.968 0 8.995-4.027 8.995-8.995 0-25.261-18.894-47.1633-44.148-47.7017-1.322-.0282-2.61-.0433-3.852-.0433-1.2422 0-2.5299.0151-3.8516.0433z" fill="#fff"/><path d="m176 144c0 17.673-14.327 32-32 32s-32-14.327-32-32 14.327-32 32-32 32 14.327 32 32z" fill="url(#paint1_linear_10_305)"/><g fill="#fff"><path d="m123 144.5c0-2.209 1.791-4 4-4h35c2.209 0 4 1.791 4 4s-1.791 4-4 4h-35c-2.209 0-4-1.791-4-4z"/><path d="m144.5 166c-2.209 0-4-1.791-4-4v-35c0-2.209 1.791-4 4-4s4 1.791 4 4v35c0 2.209-1.791 4-4 4z"/></g></svg>