<svg id="Capa_1" enable-background="new 0 0 512 512" height="512" viewBox="0 0 512 512" width="512" xmlns="http://www.w3.org/2000/svg"><g><g><g><g><g><g id="XMLID_906_"><g id="XMLID_907_"><g id="XMLID_908_"><g id="XMLID_909_"><g id="XMLID_910_"><g id="XMLID_911_"><g id="XMLID_942_"><g id="XMLID_943_"><g id="XMLID_944_"><g id="XMLID_945_"><g id="XMLID_946_"><g id="XMLID_947_"><g id="XMLID_948_"><g id="XMLID_949_"><g id="XMLID_950_"><circle cx="256" cy="256" fill="#ffdc4a" r="256"/></g></g></g></g></g></g></g></g></g></g></g></g></g></g></g></g></g></g></g><path d="m500.975 181.448-35.15-35.15-412.419 157.67 207.976 207.976c138.9-2.864 250.618-116.357 250.618-255.944 0-25.932-3.856-50.963-11.025-74.552z" fill="#edac2b"/><path d="m422.106 318.048h-332.212c-30.001 0-54.321-24.32-54.321-54.321v-85.185c0-30.001 24.321-54.321 54.321-54.321h332.212c30.001 0 54.321 24.321 54.321 54.321v85.185c0 30-24.32 54.321-54.321 54.321z" fill="#5e3ace"/><g><g><g><path d="m422.106 124.22h-166.106v193.828h166.106c30.001 0 54.322-24.321 54.322-54.321v-85.185c0-30.002-24.321-54.322-54.322-54.322z" fill="#321982"/></g></g></g><g><g><g><path d="m357.764 185.357h16.678l6.233 31.882 8.459-31.882h14.648l8.896 31.817 5.73-31.817h16.635l-12.695 70.51h-15.324l-10.337-35.048-9.802 35.027-15.324.054z" fill="#e8e8e8"/></g></g><g><path d="m218.447 185.379h-18.571v71.51h37.124v-18.571h-18.553z" fill="#fff"/><path d="m262.022 185.379h-18.57v71.51h37.124v-18.571h-18.554z" fill="#fff"/><g><path d="m280.576 238.318h-18.554v-52.939h-6.022v71.51h24.576z" fill="#e8e8e8"/></g><path d="m76.957 256.668h18.571v-26.249h20.49v-18.57h-20.49v-7.68h22.121v-18.57h-40.692z" fill="#fff"/><path d="m157.977 185.357c-19.728 0-35.777 16.05-35.777 35.777 0 19.728 16.049 35.777 35.777 35.777 19.727 0 35.776-16.05 35.776-35.777 0-19.728-16.049-35.777-35.776-35.777zm17.206 35.777c0 9.488-7.719 17.206-17.206 17.206-9.488 0-17.207-7.719-17.207-17.206 0-9.488 7.719-17.207 17.207-17.207 9.487 0 17.206 7.719 17.206 17.207z" fill="#fff"/><path d="m320.411 185.357c-19.728 0-35.777 16.05-35.777 35.777 0 19.728 16.049 35.777 35.777 35.777 19.727 0 35.776-16.05 35.776-35.777.001-19.728-16.049-35.777-35.776-35.777zm17.206 35.777c0 9.488-7.719 17.206-17.206 17.206-9.488 0-17.207-7.719-17.207-17.206 0-9.488 7.719-17.207 17.207-17.207s17.206 7.719 17.206 17.207z" fill="#e8e8e8"/></g></g><path d="m320.411 286.981 9.957 127.242 33.217-21.21 29.001 45.418 34.854-22.255-29.002-45.419 33.217-21.21z" fill="#e8e8e8"/></g></svg>