<svg id="Icons" height="512" viewBox="0 0 60 60" width="512" xmlns="http://www.w3.org/2000/svg"><path d="m59 45v11a3 3 0 0 1 -3 3h-52a3 3 0 0 1 -3-3v-11l1-2h56z" fill="#d8e1f7"/><path d="m59 4v41h-58v-41a3 3 0 0 1 3-3h52a3 3 0 0 1 3 3z" fill="#4a67a0"/><path d="m5.44 24.23a1.931 1.931 0 0 1 0-2.46c3.01-3.75 12.87-14.77 24.56-14.77s21.55 11.02 24.56 14.77a1.931 1.931 0 0 1 0 2.46c-3.01 3.75-12.87 14.77-24.56 14.77s-21.55-11.02-24.56-14.77z" fill="#fff"/><path d="m47 23a16.937 16.937 0 0 1 -5.95 12.91 23.218 23.218 0 0 1 -11.05 3.09 23.218 23.218 0 0 1 -11.05-3.09 16.981 16.981 0 0 1 0-25.82 23.218 23.218 0 0 1 11.05-3.09 23.218 23.218 0 0 1 11.05 3.09 16.937 16.937 0 0 1 5.95 12.91z" fill="#39b1fe"/><path d="m10.467 53.026-2.455 1.737a1.273 1.273 0 0 1 -2.012-1.025v-3.476a1.273 1.273 0 0 1 2.012-1.025l2.455 1.737a1.254 1.254 0 0 1 0 2.052z" fill="#d85c6e"/><circle cx="30" cy="23" fill="#395787" r="11"/><circle cx="37" cy="16" fill="#fff" r="3"/><rect fill="#4a67a0" height="6" rx="2" width="4" x="21" y="49"/><g fill="#373737"><path d="m56 0h-52a4 4 0 0 0 -4 4v3a1 1 0 0 0 2 0v-3a2 2 0 0 1 2-2h52a2 2 0 0 1 2 2v40h-56v-33a1 1 0 0 0 -2 0v45a4 4 0 0 0 4 4h52a4 4 0 0 0 4-4v-52a4 4 0 0 0 -4-4zm0 58h-52a2 2 0 0 1 -2-2v-10h56v10a2 2 0 0 1 -2 2z"/><path d="m11.045 50.158-2.455-1.737a2.278 2.278 0 0 0 -2.366-.163 2.25 2.25 0 0 0 -1.224 2v3.474a2.25 2.25 0 0 0 1.224 2 2.272 2.272 0 0 0 2.366-.163l2.454-1.737a2.253 2.253 0 0 0 0-3.684zm-1.155 2.051-2.456 1.737a.268.268 0 0 1 -.291.02.245.245 0 0 1 -.143-.229v-3.474a.245.245 0 0 1 .143-.229.3.3 0 0 1 .132-.034.271.271 0 0 1 .159.054l2.456 1.737a.254.254 0 0 1 0 .418z"/><path d="m30 40c12.234 0 22.488-11.591 25.333-15.136a2.911 2.911 0 0 0 .007-3.72c-2.852-3.553-13.106-15.144-25.34-15.144s-22.488 11.591-25.333 15.136a2.914 2.914 0 0 0 0 3.724c2.853 3.557 13.104 15.14 25.333 15.14zm23.786-17.6a.934.934 0 0 1 -.007 1.2 51.889 51.889 0 0 1 -7.956 7.924 17.792 17.792 0 0 0 0-17.056 52.034 52.034 0 0 1 7.963 7.932zm-13.323-11.49a15.967 15.967 0 0 1 0 24.18 22.184 22.184 0 0 1 -10.463 2.91 22.184 22.184 0 0 1 -10.462-2.91 15.966 15.966 0 0 1 0-24.18 22.184 22.184 0 0 1 10.462-2.91 22.191 22.191 0 0 1 10.463 2.91zm-34.249 12.69a.934.934 0 0 1 .007-1.2 51.889 51.889 0 0 1 7.956-7.924 17.792 17.792 0 0 0 0 17.056 51.889 51.889 0 0 1 -7.956-7.932z"/><path d="m18 23a12 12 0 1 0 22.676-5.427 4 4 0 0 0 -5.249-5.249 11.958 11.958 0 0 0 -17.427 10.676zm21-7a2 2 0 1 1 -2-2 2 2 0 0 1 2 2zm-9-3a9.862 9.862 0 0 1 3.722.719 3.991 3.991 0 0 0 5.559 5.559 9.862 9.862 0 0 1 .719 3.722 10 10 0 1 1 -10-10z"/><path d="m54 51h-28a3 3 0 0 0 -6 0h-5a1 1 0 0 0 0 2h5a3 3 0 0 0 6 0h28a1 1 0 0 0 0-2zm-30 2a1 1 0 0 1 -2 0v-2a1 1 0 0 1 2 0z"/></g></svg>