<?xml version="1.0" encoding="UTF-8" standalone="no"?>
<!-- Created with Inkscape (http://www.inkscape.org/) -->

<svg
   version="1.1"
   id="svg6249"
   xml:space="preserve"
   width="682.66669"
   height="682.66669"
   viewBox="0 0 682.66669 682.66669"
   xmlns="http://www.w3.org/2000/svg"
   xmlns:svg="http://www.w3.org/2000/svg"><defs
     id="defs6253"><clipPath
       clipPathUnits="userSpaceOnUse"
       id="clipPath6263"><path
         d="M 0,512 H 512 V 0 H 0 Z"
         id="path6261" /></clipPath></defs><g
     id="g6255"
     transform="matrix(1.3333333,0,0,-1.3333333,0,682.66667)"><g
       id="g6257"><g
         id="g6259"
         clip-path="url(#clipPath6263)"><g
           id="g6265"
           transform="translate(501,245)"><path
             d="m 0,0 c 0,-135.31 -109.69,-245 -245,-245 -135.31,0 -245,109.69 -245,245 0,135.31 109.69,245 245,245 C -109.69,245 0,135.31 0,0"
             style="fill:#3b3868;fill-opacity:1;fill-rule:nonzero;stroke:none"
             id="path6267" /></g><g
           id="g6269"
           transform="translate(436,200)"><path
             d="m 0,0 c 0,-99.411 -80.589,-180 -180,-180 -99.411,0 -180,80.589 -180,180 0,99.411 80.589,180 180,180 C -80.589,180 0,99.411 0,0"
             style="fill:#47477f;fill-opacity:1;fill-rule:nonzero;stroke:none"
             id="path6271" /></g><g
           id="g6273"
           transform="translate(386,512)"><path
             d="m 0,0 h -260 c -44.183,0 -80,-35.817 -80,-80 v -191.169 c 0,-44.183 35.817,-80 80,-80 h 42.559 c 13.765,0 26.563,-7.077 33.88,-18.736 l 19.681,-31.359 c 15.679,-24.981 52.081,-24.981 67.76,0 l 19.681,31.359 c 7.317,11.659 20.115,18.736 33.88,18.736 H 0 c 44.183,0 80,35.817 80,80 V -80 C 80,-35.817 44.183,0 0,0"
             style="fill:#42c3fc;fill-opacity:1;fill-rule:nonzero;stroke:none"
             id="path6275" /></g><g
           id="g6277"
           transform="translate(206.4043,240.8311)"><path
             d="m 0,0 v 191.169 c 0,44.183 35.817,80 80,80 H -79.882 c -44.183,0 -80,-35.817 -80,-80 V 0 c 0,-44.183 35.817,-80 80,-80 h 42.559 c 13.765,0 26.563,-7.077 33.88,-18.736 l 19.681,-31.359 c 15.679,-24.981 52.081,-24.981 67.76,0 l 19.681,31.359 C 110.996,-87.077 123.794,-80 137.559,-80 H 80 C 35.817,-80 0,-44.183 0,0"
             style="fill:#1aa9e8;fill-opacity:1;fill-rule:nonzero;stroke:none"
             id="path6279" /></g><g
           id="g6281"
           transform="translate(201.4502,332.957)"><path
             d="m 0,0 v 0 c -36.405,0 -65.917,-29.512 -65.917,-65.916 0,-5.868 4.758,-10.625 10.625,-10.625 H 55.291 c 5.868,0 10.625,4.757 10.625,10.625 C 65.916,-29.512 36.404,0 0,0"
             style="fill:#e9efff;fill-opacity:1;fill-rule:nonzero;stroke:none"
             id="path6283" /></g><g
           id="g6285"
           transform="translate(250.8872,376.9785)"><path
             d="m 0,0 c 0,-27.304 -22.134,-49.438 -49.438,-49.438 -27.303,0 -49.437,22.134 -49.437,49.438 0,27.304 22.134,49.438 49.437,49.438 C -22.134,49.438 0,27.304 0,0"
             style="fill:#ffffff;fill-opacity:1;fill-rule:nonzero;stroke:none"
             id="path6287" /></g><g
           id="g6289"
           transform="translate(186.4258,376.9785)"><path
             d="m 0,0 c 0,21.252 13.412,39.367 32.23,46.355 -5.358,1.99 -11.154,3.083 -17.206,3.083 -27.303,0 -49.437,-22.134 -49.437,-49.438 0,-27.303 22.134,-49.437 49.437,-49.437 6.052,0 11.848,1.092 17.206,3.082 C 13.412,-39.366 0,-21.251 0,0"
             style="fill:#e9efff;fill-opacity:1;fill-rule:nonzero;stroke:none"
             id="path6291" /></g><g
           id="g6293"
           transform="translate(356.4663,256.416)"><path
             d="m 0,0 c -11.046,0 -20,8.954 -20,20 v 100 h -9.1 c -11.046,0 -20,8.954 -20,20 0,11.046 8.954,20 20,20 H 0 c 11.046,0 20,-8.954 20,-20 V 20 C 20,8.954 11.046,0 0,0"
             style="fill:#ffffff;fill-opacity:1;fill-rule:nonzero;stroke:none"
             id="path6295" /></g><g
           id="g6297"
           transform="translate(356.4663,296.416)"><path
             d="m 0,0 c -11.046,0 -20,8.954 -20,20 v -40 c 0,-11.046 8.954,-20 20,-20 11.046,0 20,8.954 20,20 V 20 C 20,8.954 11.046,0 0,0"
             style="fill:#e9efff;fill-opacity:1;fill-rule:nonzero;stroke:none"
             id="path6299" /></g></g></g></g></svg>
