<svg id="Layer_1" enable-background="new 0 0 64 64" height="512" viewBox="0 0 64 64" width="512" xmlns="http://www.w3.org/2000/svg" xmlns:xlink="http://www.w3.org/1999/xlink"><linearGradient id="lg1"><stop offset=".001943109" stop-color="#034a7a"/><stop offset="1" stop-color="#002f49"/></linearGradient><linearGradient id="SVGID_1_" gradientUnits="userSpaceOnUse" x1="6" x2="28" xlink:href="#lg1" y1="17" y2="17"/><linearGradient id="SVGID_2_" gradientUnits="userSpaceOnUse" x1="0" x2="64" xlink:href="#lg1" y1="32" y2="32"/><g><g fill="#1c94f9"><path d="m48.6 37.8c-.9-.4-1.5-1.1-2-1.8h-2.5-.1-2.1c-1.5 3.1-3.6 5.7-6.1 7h1c.5.8 1.2 1.5 2.2 2 3.2 1.6 10.9 2.6 13.8 8h9.2v-3.6c0-8.9-9.8-9.8-13.4-11.6z"/><path d="m44.1 36c5.5 0 9.9-7.4 9.9-14.1 0-5-5-9.9-10-9.9-3.9 0-6.2 1.8-7.8 3.8 4.5 1.7 7.8 6.1 7.8 11.2 0 2.9-.7 6-2 8.7.7.2 1.3.3 2.1.3-.1 0-.1 0 0 0-.1 0 0 0 0 0z"/></g><circle cx="17" cy="17" fill="#1c94f9" r="15"/><g><path d="m28 18c0-1.1-.9-2-2-2h-.6l-2.5-6.7c-.3-.8-1.1-1.3-2-1.3s-1.6.6-1.8 1.4l-2.4 8.4-1.8-4.6c-.3-.7-.9-1.1-1.6-1.2s-1.4.2-1.9.8l-2.4 3.2h-1c-1.1 0-2 .9-2 2s.9 2 2 2h2c.6 0 1.2-.3 1.6-.8l.9-1.2 2.7 6.7c.3.8 1 1.3 1.9 1.3h.1c.9 0 1.6-.6 1.8-1.4l2.3-8.2.9 2.3c.3.8 1 1.3 1.9 1.3h2c1 0 1.9-.9 1.9-2z" fill="url(#SVGID_1_)"/><path d="m52.7 36.3c-1-.3-1.9-.6-2.5-.9 3.4-2.7 5.8-7.2 5.8-13.3 0-6.7-5.5-12.1-12.3-12.1-3.2 0-6.2 1.2-8.6 3.4-.5-.1-1.1-.2-1.6-.3-1.7-7.5-8.5-13.1-16.5-13.1-9.4 0-17 7.6-17 17s7.6 17 17 17c.7 0 1.4-.1 2.2-.2 1.1 3.4 3 6.7 5.5 9-.2.1-.3.2-.6.3-.7.3-1.8.7-3 1.1-4.9 1.7-13.1 4.4-13.1 13.8v4c0 1.1.9 2 2 2h44c1.1 0 2-.9 2-2v-4c0-.8-.1-1.6-.2-2.3h6.2c1.1 0 2-.9 2-2v-5.4c0-8.2-7.1-10.6-11.3-12zm-9-22.3c4.6 0 8.3 3.6 8.3 8.1 0 5-2.6 10.4-7 11.6.6-2.1 1-4.3 1-6.7 0-5-2.6-9.4-6.6-11.8 1.3-.8 2.8-1.2 4.3-1.2zm-39.7 3c0-7.2 5.8-13 13-13s13 5.8 13 13-5.8 13-13 13-13-5.8-13-13zm19 15.9c6.3-2.4 10.9-8.5 10.9-15.7 4.6.9 8 5 8 9.8 0 7.4-5 15-10 15-3.9 0-7.3-4.4-8.9-9.1zm37 18.8h-5.6c-2.6-4.4-7.6-6.1-10.7-7.1-1.1-.4-2.2.2-2.5 1.3-.3 1 .2 2.2 1.3 2.5 5.1 1.7 9.6 3.7 9.6 9.6v2h-40.1v-2c0-6 4.5-8 10.4-9.9 1.4-.4 2.5-.8 3.4-1.3.9-.4 1.7-1 2.3-1.7 1.2.5 2.5.8 3.9.8 4.1 0 8.4-3.1 11.2-8 1.1 0 2.2-.2 3.3-.6.6.7 1.3 1.2 2.1 1.6s1.8.7 2.9 1.1c4.8 1.6 8.6 3.3 8.6 8.2v3.5z" fill="url(#SVGID_2_)"/></g></g></svg>