<svg id="Capa_1" enable-background="new 0 0 512 512" height="512" viewBox="0 0 512 512" width="512" xmlns="http://www.w3.org/2000/svg"><g><g><g><g><g><circle cx="256" cy="267" fill="#e5eef9" r="245"/></g></g></g><g><g><g><circle cx="256" cy="267" fill="#fff" r="195"/></g></g></g><g fill="#af66da"><path d="m311.877 67.143c-16.209-4.538-33.212-7.153-50.749-7.581-2.81-.068-5.129 2.195-5.129 5.006v15.005c0 2.702 2.148 4.919 4.849 4.99 15.461.405 30.448 2.746 44.731 6.782.965-8.486 3.119-16.611 6.298-24.202z"/><path d="m463.494 266.551c-.069-32.409-7.619-63.089-20.99-90.423-6.943 4.522-14.556 8.101-22.658 10.556 11.935 24.25 18.654 51.511 18.654 80.316 0 14.39-1.674 28.677-4.981 42.54-.628 2.633.952 5.284 3.567 5.982l14.496 3.874c2.721.727 5.505-.936 6.164-3.675 3.82-15.881 5.755-32.246 5.755-48.721v-.449z"/></g><path d="m314.793 142.125c-17.837-8.413-37.764-13.125-58.793-13.125-76.215 0-138 61.785-138 138s61.785 138 138 138 138-61.785 138-138c0-29.951-9.545-57.67-25.754-80.29-23.271-7.024-42.521-23.314-53.453-44.585z" fill="#fe3d97"/><path d="m174 267c0-66.622 47.21-122.215 110-135.155-9.042-1.864-18.406-2.845-28-2.845-76.215 0-138 61.785-138 138s61.785 138 138 138c9.594 0 18.958-.981 28-2.845-62.79-12.94-110-68.533-110-135.155z" fill="#e41e7f"/><g><path d="m256.16 474.5h-.16c-16.449 0-32.787-1.928-48.644-5.736-2.739-.658-4.403-3.441-3.677-6.162l3.868-14.498c.698-2.615 3.349-4.196 5.982-3.569 13.798 3.286 28.014 4.955 42.335 4.965h.192v12.721l.264 12.276z" fill="#fe7d43"/><path d="m256.056 462.218v.002-.22z" fill="#af66da"/><path d="m282.471 467.714-1.944-14.878c-.351-2.684 1.499-5.155 4.172-5.578 12.542-1.981 24.84-5.271 36.675-9.813 2.527-.97 5.363.247 6.4 2.747l5.751 13.86c1.08 2.602-.203 5.58-2.831 6.594-13.701 5.287-27.946 9.098-42.477 11.365-2.783.435-5.381-1.504-5.746-4.297z" fill="#fe7d43"/><path d="m171.918 456.754c-13.408-5.95-26.173-13.327-38.06-21.995-2.276-1.659-2.744-4.867-1.029-7.101l9.138-11.901c1.648-2.147 4.704-2.589 6.894-.998 10.285 7.471 21.312 13.845 32.885 19.007 2.472 1.102 3.615 3.969 2.579 6.47l-5.742 13.862c-1.078 2.601-4.091 3.798-6.665 2.656z" fill="#feb137"/><path d="m357.26 442.321-7.516-12.986c-1.356-2.343-.599-5.336 1.706-6.754 10.804-6.644 20.906-14.408 30.127-23.154 1.964-1.863 5.051-1.823 6.966.091l10.611 10.609c1.991 1.991 1.945 5.232-.094 7.174-10.645 10.135-22.331 19.115-34.842 26.777-2.403 1.472-5.547.681-6.958-1.757z" fill="#fe3d97"/><path d="m105.751 410.114c-10.137-10.64-19.12-22.319-26.784-34.823-1.472-2.401-.682-5.546 1.755-6.957l12.983-7.521c2.342-1.357 5.335-.601 6.754 1.704 6.646 10.797 14.411 20.893 23.16 30.109 1.864 1.963 1.825 5.051-.088 6.966l-10.605 10.615c-1.991 1.991-5.232 1.946-7.175-.093z" fill="#feb137"/><path d="m416.614 390.228-11.898-9.142c-2.146-1.649-2.587-4.705-.996-6.894 7.475-10.282 13.853-21.308 19.019-32.881 1.103-2.471 3.971-3.614 6.471-2.577l13.861 5.747c2.602 1.079 3.799 4.092 2.655 6.667-5.956 13.409-13.338 26.172-22.011 38.055-1.66 2.274-4.868 2.741-7.101 1.025z" fill="#fe3d97"/><path d="m62.393 341.792c-5.292-13.694-9.111-27.934-11.386-42.46-.436-2.783 1.502-5.383 4.295-5.749l14.877-1.952c2.683-.352 5.156 1.496 5.58 4.169 1.988 12.538 5.284 24.831 9.83 36.661.971 2.526-.245 5.363-2.744 6.402l-13.856 5.758c-2.602 1.08-5.581-.201-6.596-2.829z" fill="#feb137"/><path d="m73.5 267.172h-25v-.172c0-16.407 1.919-32.706 5.708-48.524.656-2.739 3.438-4.405 6.16-3.68l14.5 3.86c2.616.696 4.198 3.346 3.572 5.979-3.279 13.807-4.94 28.035-4.94 42.365z" fill="#fe7d43"/><path d="m82.724 195.428-13.866-5.734c-2.603-1.076-3.802-4.089-2.661-6.664 5.943-13.413 13.312-26.182 21.973-38.073 1.658-2.276 4.866-2.747 7.101-1.033l11.907 9.131c2.148 1.647 2.592 4.703 1.002 6.894-7.465 10.289-13.832 21.32-18.987 32.897-1.102 2.471-3.968 3.616-6.469 2.582z" fill="#fe7d43"/><g fill="#fe3d97"><path d="m123.331 134.609-10.621-10.599c-1.993-1.989-1.95-5.231.087-7.174 10.633-10.143 22.307-19.133 34.807-26.805 2.4-1.473 5.545-.686 6.958 1.751l7.529 12.978c1.358 2.341.605 5.335-1.7 6.755-10.794 6.653-20.886 14.425-30.096 23.178-1.961 1.866-5.048 1.829-6.964-.084z"/><path d="m184.035 93.887-5.766-13.853c-1.082-2.601.197-5.58 2.824-6.597 13.691-5.3 27.928-9.128 42.453-11.411 2.782-.437 5.383 1.499 5.752 4.291l1.961 14.876c.354 2.683-1.493 5.157-4.165 5.583-12.537 1.996-24.828 5.299-36.655 9.853-2.526.97-5.364-.244-6.404-2.742z"/></g></g><path d="m311 251.483h-39.483v-39.483c0-2.761-2.239-5-5-5h-21.034c-2.761 0-5 2.239-5 5v39.483h-39.483c-2.761 0-5 2.239-5 5v21.034c0 2.761 2.239 5 5 5h39.483v39.483c0 2.761 2.239 5 5 5h21.034c2.761 0 5-2.239 5-5v-39.483h39.483c2.761 0 5-2.239 5-5v-21.034c0-2.762-2.239-5-5-5z" fill="#fff"/></g><g><g><circle cx="394" cy="101.5" fill="#fff" r="89"/></g><path d="m347 101.5c0-41.918 28.982-77.062 68-86.501-6.734-1.629-13.765-2.499-21-2.499-49.153 0-89 39.847-89 89s39.847 89 89 89c7.235 0 14.266-.87 21-2.499-39.018-9.439-68-44.583-68-86.501z" fill="#e5eef9"/><g><path d="m394 203c-55.967 0-101.5-45.533-101.5-101.5s45.533-101.5 101.5-101.5 101.5 45.533 101.5 101.5-45.533 101.5-101.5 101.5zm0-178c-42.182 0-76.5 34.318-76.5 76.5s34.318 76.5 76.5 76.5 76.5-34.318 76.5-76.5-34.318-76.5-76.5-76.5z" fill="#01c0fa"/></g><g><path d="m440.973 97.301-67.874-39.187c-3.233-1.866-7.273.467-7.273 4.199v78.374c0 3.733 4.041 6.066 7.273 4.199l67.874-39.187c3.233-1.866 3.233-6.532 0-8.398z" fill="#0078c8"/></g><path d="m391 68.449-17.901-10.335c-3.233-1.866-7.273.467-7.273 4.199v78.374c0 3.733 4.041 6.066 7.273 4.199l17.901-10.335z" fill="#0268b4"/></g></g></svg>