<svg id="Capa_1" enable-background="new 0 0 512 512" height="512" viewBox="0 0 512 512" width="512" xmlns="http://www.w3.org/2000/svg"><g><path d="m457 512h-402c-30.327 0-55-24.673-55-55v-402c0-30.327 24.673-55 55-55h402c30.327 0 55 24.673 55 55v402c0 30.327-24.673 55-55 55z" fill="#ff1f3d"/><path d="m512 457v-402c0-30.327-24.673-55-55-55h-201v512h201c30.327 0 55-24.673 55-55z" fill="#d0004f"/><path d="m376 291h-240c-24.813 0-45-20.187-45-45v-140c0-24.813 20.187-45 45-45h240c24.813 0 45 20.187 45 45v140c0 24.813-20.187 45-45 45z" fill="#ff6378"/><path d="m376 61h-120v230h120c24.813 0 45-20.187 45-45v-140c0-24.813-20.187-45-45-45z" fill="#ff1f3d"/><path d="m141.89 426.414c-.028 0-.058 0-.086 0-6.785.038-13.934.066-19.933.078v-84.994c0-8.284-6.716-15-15-15s-15 6.716-15 15v99.916c0 7.307 5.265 13.55 12.466 14.785 1.08.185 1.795.308 12.961.308 5.387 0 13.209-.028 24.674-.092 8.284-.046 14.962-6.8 14.916-15.084-.046-8.257-6.753-14.917-14.998-14.917z" fill="#fff5f5"/><path d="m405.129 426.498h-27.136v-20h24.028c8.284 0 15-6.716 15-15s-6.716-15-15-15h-24.028v-20h27.136c8.284 0 15-6.716 15-15s-6.716-15-15-15h-42.136c-8.284 0-15 6.716-15 15v100c0 8.284 6.716 15 15 15h42.136c8.284 0 15-6.716 15-15s-6.716-15-15-15z" fill="#dfdef5"/><path d="m317.722 327.446c-7.863-2.615-16.353 1.645-18.964 9.506l-20.817 62.666-21.882-63.039c-2.717-7.826-11.265-11.97-19.09-9.251-7.826 2.716-11.968 11.263-9.252 19.089l34.19 98.499c.012.033.023.066.035.099 2.442 6.881 8.968 11.484 16.262 11.484h.117c7.341-.049 13.86-4.752 16.223-11.703.011-.033.022-.065.033-.098l32.651-98.286c2.612-7.864-1.644-16.354-9.506-18.966z" fill="#fff5f5"/><path d="m317.722 327.446c-7.863-2.615-16.353 1.645-18.964 9.506l-20.817 62.666-21.882-63.039c-.017-.05-.041-.095-.059-.145v91.463l5.907 17.018c.012.033.023.066.035.099 2.442 6.881 8.968 11.484 16.262 11.484h.117c7.341-.049 13.86-4.752 16.223-11.703.011-.033.022-.065.033-.098l32.651-98.286c2.612-7.863-1.644-16.353-9.506-18.965z" fill="#dfdef5"/><path d="m191.888 326.498c-8.284 0-15 6.716-15 15v100c0 8.284 6.716 15 15 15s15-6.716 15-15v-100c0-8.284-6.716-15-15-15z" fill="#fff5f5"/><path d="m211 216v-80c0-11.517 12.442-18.738 22.442-13.024l70 40c10.077 5.758 10.077 20.289 0 26.047l-70 40c-10 5.715-22.442-1.506-22.442-13.023z" fill="#fff5f5"/><path d="m303.442 162.976-47.442-27.109v80.267l47.442-27.11c10.077-5.759 10.077-20.289 0-26.048z" fill="#dfdef5"/></g></svg>