<svg id="Layer_1" height="512" viewBox="0 0 64 64" width="512" xmlns="http://www.w3.org/2000/svg"><g><path d="m48.8 1h-33.1v62h47.3v-47.8z" fill="#fff"/><path d="m64 64h-49.3v-64h34.5l14.8 14.8zm-47.3-2h45.3v-46.4l-13.6-13.6h-31.7z" fill="#193651"/><path d="m19.7 59v-54h27.4l11.9 11.9v42.1z" fill="#4fbf9f"/><path d="m47.1 16.9h11.9l-11.9-11.9z" fill="#d3d7da"/><path d="m26.4 23.8h25.9" fill="#fff"/><path d="m26.4 22.8h25.8v2h-25.8z" fill="#193651"/><path d="m26.4 33.9h25.9" fill="#fff"/><path d="m26.4 32.9h25.8v2h-25.8z" fill="#193651"/><path d="m27.4 11.8v2" fill="#fff"/><path d="m26.4 11.8h2v2h-2z" fill="#193651"/><path d="m33.4 11.8v2" fill="#fff"/><path d="m32.4 11.8h2v2h-2z" fill="#193651"/><path d="m39.4 11.8v2" fill="#fff"/><path d="m38.4 11.8h2v2h-2z" fill="#193651"/><path d="m36.1 49.3c0-1.4-1.1-2.5-2.5-2.5 1.4 0 2.5-1.1 2.5-2.5s-1.1-2.5-2.5-2.5h-11c1.2-3.2 1.7-5.8 2-7.6s.5-3.8.3-4.4c-.8-2-3.8-3.7-5.2 1.1-1.2 4.2-3.7 8.5-5.2 10.9h-4.2v19.8h16.8 5.2 1.2c1.4 0 2.5-1.1 2.5-2.5s-1.1-2.5-2.5-2.5c1.4 0 2.5-1.1 2.5-2.5s-1.1-2.5-2.5-2.5c1.4.2 2.6-.9 2.6-2.3z" fill="#fff"/><path d="m33.6 62.7h-24.2v-21.8h4.6c1.4-2.3 3.7-6.4 4.8-10.2 1-3.3 2.7-3.8 3.6-3.8 1.6 0 2.9 1.3 3.4 2.7.2.5.3 1.4-.3 4.9-.2 1.4-.7 3.7-1.6 6.5h9.6c1.9 0 3.5 1.6 3.5 3.5 0 1-.4 1.8-1 2.5.6.6 1 1.5 1 2.5s-.4 1.8-1 2.5c.6.6 1 1.5 1 2.5s-.4 1.8-1 2.5c.6.6 1 1.5 1 2.5.1 1.7-1.5 3.2-3.4 3.2zm-22.2-2h22.2c.8 0 1.5-.7 1.5-1.5s-.7-1.5-1.5-1.5v-2c.8 0 1.5-.7 1.5-1.5s-.7-1.5-1.5-1.5v-2c.8 0 1.5-.7 1.5-1.5s-.7-1.5-1.5-1.5v-2c.8 0 1.5-.7 1.5-1.5s-.7-1.5-1.5-1.5h-12.4l.5-1.3c1.2-3.3 1.7-5.9 2-7.5.5-3.1.4-3.8.4-3.9-.3-.7-1-1.3-1.6-1.3s-1.3.9-1.7 2.4c-1.3 4.4-3.9 8.9-5.3 11.2l-.3.5h-3.7v17.9z" fill="#193651"/><path d="m1 40.6h9.4v22.4h-9.4z" fill="#fdbf5e"/><path d="m11.4 64h-11.4v-24.4h11.4zm-9.4-2h7.4v-20.4h-7.4z" fill="#193651"/><path d="m33.6 46.9h-4.8" fill="#fff"/><path d="m28.8 45.9h4.8v2h-4.8z" fill="#193651"/><path d="m33.6 51.8h-4.8" fill="#fff"/><path d="m28.8 50.8h4.8v2h-4.8z" fill="#193651"/><path d="m33.6 56.8h-4.8" fill="#fff"/><path d="m28.8 55.8h4.8v2h-4.8z" fill="#193651"/><path d="m6.4 45.9h-1.4" fill="#fff"/><path d="m5 44.9h1.5v2h-1.5z" fill="#193651"/><path d="m6.4 51.8h-1.4" fill="#fff"/><path d="m5 50.8h1.5v2h-1.5z" fill="#193651"/><path d="m6.4 57.7h-1.4" fill="#fff"/><path d="m5 56.7h1.5v2h-1.5z" fill="#193651"/><path d="m48.8 1h-33.1v62h47.3v-47.8z" fill="#fff"/><path d="m19.7 59v-54h27.4l11.9 11.9v42.1z" fill="#4fbf9f"/><path d="m47.1 16.9h11.9l-11.9-11.9z" fill="#d3d7da"/><path d="m26.4 23.8h25.9" fill="#fff"/><path d="m26.4 22.8h25.8v2h-25.8z" fill="#193651"/><path d="m26.4 33.9h25.9" fill="#fff"/><path d="m26.4 32.9h25.8v2h-25.8z" fill="#193651"/><path d="m27.4 11.8v2" fill="#fff"/><path d="m26.4 11.8h2v2h-2z" fill="#193651"/><path d="m33.4 11.8v2" fill="#fff"/><path d="m32.4 11.8h2v2h-2z" fill="#193651"/><path d="m39.4 11.8v2" fill="#fff"/><path d="m38.4 11.8h2v2h-2z" fill="#193651"/><path d="m36.1 49.3c0-1.4-1.1-2.5-2.5-2.5 1.4 0 2.5-1.1 2.5-2.5s-1.1-2.5-2.5-2.5h-11c1.2-3.2 1.7-5.8 2-7.6s.5-3.8.3-4.4c-.8-2-3.8-3.7-5.2 1.1-1.2 4.2-3.7 8.5-5.2 10.9h-4.2v19.8h16.8 5.2 1.2c1.4 0 2.5-1.1 2.5-2.5s-1.1-2.5-2.5-2.5c1.4 0 2.5-1.1 2.5-2.5s-1.1-2.5-2.5-2.5c1.4.2 2.6-.9 2.6-2.3z" fill="#fff"/><path d="m1 40.6h9.4v22.4h-9.4z" fill="#fdbf5e"/><g fill="#fff"><path d="m33.6 46.9h-4.8"/><path d="m33.6 51.8h-4.8"/><path d="m33.6 56.8h-4.8"/></g><path d="m49.2 0h-34.5v39.7c-.3.4-.5.8-.7 1.2h-2.6v-1.3h-11.4v24.4h64v-49.2zm-39.8 62h-7.4v-20.4h7.4zm24.2-14.1c.8 0 1.5.7 1.5 1.5s-.7 1.5-1.5 1.5h-4.8v2h4.8c.8 0 1.5.7 1.5 1.5s-.7 1.5-1.5 1.5h-4.8v2h4.8c.8 0 1.5.7 1.5 1.5s-.7 1.5-1.5 1.5h-22.2v-18h3.7s4.4-7.3 5.6-11.7c.4-1.5 1.1-2.4 1.7-2.4s1.3.6 1.6 1.3c0 .1.1.8-.4 3.9-.3 1.6-2.5 8.8-2.5 8.8h12.4c.8 0 1.5.7 1.5 1.5s-.7 1.5-1.5 1.5h-4.8v2h4.9zm28.4 14.1h-26.3c.8-.6 1.4-1.6 1.4-2.7 0-1-.4-1.8-1-2.5.6-.6 1-1.5 1-2.5s-.4-1.8-1-2.5c.6-.6 1-1.5 1-2.5s-.4-1.8-1-2.5c.6-.6 1-1.5 1-2.5 0-1.9-1.6-3.5-3.5-3.5h-9.6c.9-2.8 1.4-5 1.6-6.5.6-3.5.5-4.4.3-4.9-.5-1.3-1.8-2.7-3.4-2.7-.9 0-2.7.5-3.6 3.8-.5 1.8-1.3 3.6-2.1 5.3v-33.8h31.7l13.5 13.6z" fill="#193651"/><path d="m6.4 45.9h-1.4" fill="#fff"/><path d="m5 44.9h1.5v2h-1.5z" fill="#193651"/><path d="m6.4 51.8h-1.4" fill="#fff"/><path d="m5 50.8h1.5v2h-1.5z" fill="#193651"/><path d="m6.4 57.7h-1.4" fill="#fff"/><path d="m5 56.7h1.5v2h-1.5z" fill="#193651"/></g></svg>