<svg height="426pt" viewBox="0 -21 426.66667 426" width="426pt" xmlns="http://www.w3.org/2000/svg"><path d="m21.332031 107v224c.054688 17.652344 14.347657 31.949219 32 32h320c17.652344-.050781 31.949219-14.347656 32-32v-224zm192 192c-52.265625 0-128-44.90625-128-64s75.734375-64 128-64c52.269531 0 128 44.90625 128 64s-75.730469 64-128 64zm0 0" fill="#42a5f5"/><path d="m373.332031 21.667969h-320c-17.652343.050781-31.945312 14.347656-32 32v32h384v-32c-.050781-17.652344-14.347656-31.949219-32-32zm-298.664062 42.664062h-21.335938c-5.890625 0-10.664062-4.773437-10.664062-10.664062s4.773437-10.667969 10.664062-10.667969h21.335938c5.890625 0 10.664062 4.777344 10.664062 10.667969s-4.773437 10.664062-10.664062 10.664062zm64 0h-21.335938c-5.890625 0-10.664062-4.773437-10.664062-10.664062s4.773437-10.667969 10.664062-10.667969h21.335938c5.890625 0 10.664062 4.777344 10.664062 10.667969s-4.773437 10.664062-10.664062 10.664062zm0 0" fill="#90caf9"/><path d="m109.226562 235c14.3125 11.5625 30.136719 21.109375 47.039063 28.375-9.242187-17.789062-9.242187-38.960938 0-56.75-16.902344 7.265625-32.726563 16.8125-47.039063 28.375zm0 0" fill="#90caf9"/><path d="m277.332031 235c-.066406 9.867188-2.441406 19.585938-6.933593 28.375 16.902343-7.265625 32.730468-16.8125 47.042968-28.375-14.296875-11.585938-30.125-21.132812-47.042968-28.375 4.492187 8.789062 6.867187 18.507812 6.933593 28.375zm0 0" fill="#90caf9"/><path d="m213.332031 192.332031c-23.5625 0-42.664062 19.105469-42.664062 42.667969s19.101562 42.667969 42.664062 42.667969c23.566407 0 42.667969-19.105469 42.667969-42.667969.007812-23.566406-19.101562-42.671875-42.667969-42.667969zm0 64c-11.78125 0-21.332031-9.550781-21.332031-21.332031s9.550781-21.332031 21.332031-21.332031c11.785157 0 21.335938 9.550781 21.335938 21.332031-.035157 11.769531-9.566407 21.296875-21.335938 21.332031zm0 0" fill="#90caf9"/><g fill="#1976d2"><path d="m373.332031.332031h-320c-29.449219.011719-53.3203122 23.882813-53.332031 53.335938v277.332031c.0117188 29.449219 23.882812 53.324219 53.332031 53.332031h320c29.453125-.007812 53.324219-23.882812 53.335938-53.332031v-277.332031c-.011719-29.453125-23.882813-53.324219-53.335938-53.335938zm32 330.667969c-.050781 17.652344-14.347656 31.949219-32 32h-320c-17.652343-.050781-31.945312-14.347656-32-32v-224h384zm0-245.332031h-384v-32c.054688-17.652344 14.347657-31.949219 32-32h320c17.652344.050781 31.949219 14.347656 32 32zm0 0"/><path d="m74.667969 43h-21.335938c-5.890625 0-10.664062 4.777344-10.664062 10.667969s4.773437 10.664062 10.664062 10.664062h21.335938c5.890625 0 10.664062-4.773437 10.664062-10.664062s-4.773437-10.667969-10.664062-10.667969zm0 0"/><path d="m138.667969 43h-21.335938c-5.890625 0-10.664062 4.777344-10.664062 10.667969s4.773437 10.664062 10.664062 10.664062h21.335938c5.890625 0 10.664062-4.773437 10.664062-10.664062s-4.773437-10.667969-10.664062-10.667969zm0 0"/><path d="m213.332031 299c52.269531 0 128-44.90625 128-64s-75.730469-64-128-64c-52.265625 0-128 44.90625-128 64s75.734375 64 128 64zm57.066407-92.375c16.917968 7.242188 32.746093 16.789062 47.042968 28.375-14.3125 11.5625-30.140625 21.109375-47.042968 28.375 9.246093-17.789062 9.246093-38.960938 0-56.75zm-57.066407-14.292969c23.566407 0 42.667969 19.105469 42.667969 42.667969s-19.101562 42.667969-42.667969 42.667969c-23.5625 0-42.664062-19.105469-42.664062-42.667969-.007813-23.566406 19.097656-42.671875 42.664062-42.667969zm-57.066406 14.292969c-9.242187 17.789062-9.242187 38.960938 0 56.75-16.902344-7.265625-32.726563-16.8125-47.039063-28.375 14.3125-11.5625 30.136719-21.109375 47.039063-28.375zm0 0"/><path d="m234.667969 235c0 11.78125-9.550781 21.332031-21.335938 21.332031-11.78125 0-21.332031-9.550781-21.332031-21.332031s9.550781-21.332031 21.332031-21.332031c11.785157 0 21.335938 9.550781 21.335938 21.332031zm0 0"/></g></svg>