<svg viewBox="0 0 512 512" xmlns="http://www.w3.org/2000/svg" xmlns:xlink="http://www.w3.org/1999/xlink"><linearGradient id="linear-gradient" gradientUnits="userSpaceOnUse" x1=".49" x2="512.49" y1="255.53" y2="255.53"><stop offset="0" stop-color="#cc3232"/><stop offset=".6" stop-color="#ef5a5a"/><stop offset="1" stop-color="#f47e67"/></linearGradient><g id="ESSENTIAL_UI" data-name="ESSENTIAL UI"><path d="m257.08 512c-17.44 0-34.59-.39-51-1.1-33.73-1.46-65-4.3-95.65-8.69a28 28 0 0 1 8-55.44 904.19 904.19 0 0 0 90.02 8.23c15.68.68 32 1 48.63 1.05 16.36 0 32.55-.36 48.07-1 31.34-1.34 60.34-3.93 88.67-7.92a28 28 0 1 1 7.81 55.45c-30.14 4.25-60.91 7-94.08 8.42-16.3.62-33.28 1-50.47 1zm255.41-298.47c-.08 49-5.46 84.94-10.95 111.34-9.63 43.48-51.78 83.32-95.38 91.77-26.56 5.36-100.66 11.87-149.67 11.36-49 .54-123.1-6-149.67-11.33-43.6-8.45-85.75-48.29-95.38-91.77-5.44-26.43-10.87-62.34-10.95-111.37.09-49 5.46-84.94 11-111.34 9.63-43.48 51.78-83.32 95.38-91.77 26.51-5.31 100.61-11.87 149.62-11.33 49-.54 123.11 6 149.67 11.33 43.6 8.45 85.75 48.29 95.38 91.77 5.46 26.4 10.87 62.31 10.95 111.34zm-157.84 0a35.92 35.92 0 0 0 -15.79-30c-40.06-27.53-89.32-55.39-125.74-72.53-20.58-10.77-50.66 7.8-52.27 33.88a936.89 936.89 0 0 0 0 137.34c1.61 26.08 31.69 44.65 52.27 33.88 36.42-17.16 85.68-45 125.74-72.58a35.93 35.93 0 0 0 15.79-29.99z" fill="url(#linear-gradient)"/></g></svg>