<svg id="Layer_1" height="512" viewBox="0 0 512 512" width="512" xmlns="http://www.w3.org/2000/svg" data-name="Layer 1"><g fill-rule="evenodd"><path d="m256 16c-132.336 0-240 107.664-240 240s107.664 240 240 240 240-107.661 240-240-107.664-240-240-240z" fill="#46cc6b"/><path d="m289.45 493.659q8.424-1.183 16.66-2.936a238.388 238.388 0 0 0 32.082-9.237l.011.01a239.1 239.1 0 0 0 42.683-20.628l.037-.023q.471-.288.941-.579a241.092 241.092 0 0 0 27.328-19.659q2.351-1.955 4.649-3.969a241.9 241.9 0 0 0 43.546-50.224q3.164-4.868 6.1-9.9c.241-.4.482-.807.717-1.215a239.026 239.026 0 0 0 13.959-28.486l.088-.216.211-.516.174-.43.072-.179q2.553-6.327 4.751-12.828l.071-.22-107.288-119.782.779.9.764.962.752 1.028 1.463 2.182.95 1.554-87.47-97.574 1.4 1.634 1.323 1.72 1.244 1.8 1.164 1.886 1.085 1.97 1 2.048.925 2.125.844 2.2.763 2.275.683 2.346.6 2.416.52 2.484.439 2.552.357 2.615.275 2.679.193 2.738.11 2.8.028 2.855-.055 2.911-.137 2.965-.221 3.016-.3 3.066-.388 3.115-.473 3.16-.556 3.2-.641 3.248-.725 3.288-.811 3.326-.894 3.366-.981 3.4-.071.269-.057.27-.039.271-.024.272-.008.273.007.272.024.271.038.268.054.266.069.263.085.26.1.254.114.249.129.243.144.237.157.23.171.219.183.207 89.2 94.668-.574 2.689-.8 3.365-.886 3.352-.97 3.332-.859 2.72-.908 2.673-.954 2.626-1 2.576-1.047 2.526-1.092 2.477-1.135 2.424-1.179 2.372-1.222 2.317-1.263 2.263-1.3 2.207-1.344 2.15-1.383 2.093-1.421 2.033-1.459 1.974-1.5 1.913-1.531 1.858-1.567 1.788-1.6 1.724-1.634 1.66-1.668 1.593-1.7 1.528-1.731 1.458-1.761 1.39-1.79 1.32-1.82 1.249-1.846 1.177-1.874 1.1-1.9 1.031-.878.436-163.876-159.517.783.822.744.859.7.893.66.927.615.96.571.991.523 1.019.473 1.047.424 1.073.373 1.1.319 1.121.264 1.143.209 1.164.151 1.182.09 1.2.032 1.215v118.657l-.032 1.215-.09 1.2-.151 1.182-.209 1.164-.264 1.143-.319 1.121-.373 1.1-.424 1.072-.473 1.048-.523 1.019-.571.99-.615.959-.66.928-.7.893-.744.86-.783.821-.822.783-.859.744-.893.7-.927.66-.96.616-.99.569-1.019.524-1.047.474-1.073.424-1.1.372-1.12.318-1.144.264-1.163.209-1.182.151-1.2.092-1.215.03h-22.2l-1.214-.03-1.2-.092-1.181-.151-1.164-.209-1.143-.264-1.121-.318-1.1-.372-1.073-.424-1.047-.474-1.02-.524-.99-.569-.96-.616-.927-.66-.894-.7 155.567 130.86q3.404-.382 6.776-.853z" fill="#179c5f"/><path d="m164.343 369.057h-22.2a23.671 23.671 0 0 1 -23.643-23.647v-118.658a23.671 23.671 0 0 1 23.644-23.647h22.2a23.67 23.67 0 0 1 23.645 23.647v118.658a23.671 23.671 0 0 1 -23.645 23.647zm222.957-56.151c-8.905 29.255-26.161 50.709-47.341 58.854-43.1 16.581-108.184-.13-144.058-16.272a33.008 33.008 0 0 0 1.572-10.078v-118.658c0-1.049-.055-2.081-.15-3.107l41.714-46.47c3.251-3.622 5.95-6.5 8.118-8.815 10.9-11.631 11.313-12.681 11.127-28.141-.041-3.379-.091-7.588-.015-12.929.1-7.084 3.035-12.26 8.26-14.572 6.925-3.071 16.309-.723 23.912 5.976 17.059 15.034 20.729 45.765 9.817 82.211a4.739 4.739 0 0 0 4.482 6.1c12.865.172 23.488-.521 32.86-1.126 23.236-1.506 32.982-1.666 40.939 9.651 16.029 22.799 19.551 61.931 8.763 97.376z" fill="#fff"/></g></svg>