<svg enable-background="new 0 0 512 512" height="512" viewBox="0 0 512 512" width="512" xmlns="http://www.w3.org/2000/svg"><g id="_x33_3_x2C__follow_x2C__friends_x2C__button_x2C__social_media_x2C__profile_x2C__miscellaneous"><g><path d="m424.68 151.038h-337.36c-47.546 0-86.227 38.681-86.227 86.227v187.415c0 47.546 38.681 86.227 86.227 86.227h337.36c47.546 0 86.227-38.681 86.227-86.227v-187.414c0-47.547-38.681-86.228-86.227-86.228zm-168.68 299.891c-66.144 0-119.956-53.812-119.956-119.956s53.812-119.957 119.956-119.957 119.956 53.812 119.956 119.956-53.812 119.957-119.956 119.957z"/><path d="m256 241.005c-49.608 0-89.967 40.359-89.967 89.967s40.359 89.968 89.967 89.968 89.967-40.359 89.967-89.967-40.359-89.968-89.967-89.968zm51.088 64.583-50.981 50.981c-5.856 5.856-15.35 5.855-21.205 0l-29.989-29.989c-5.856-5.855-5.856-15.35 0-21.205 5.855-5.855 15.35-5.855 21.205 0l19.386 19.386 40.379-40.379c5.855-5.855 15.35-5.855 21.205 0 5.856 5.856 5.856 15.351 0 21.206z"/><path d="m379.695 46.077c11.515 0 22.64 1.692 33.15 4.825-13.755-29.39-43.598-49.808-78.134-49.808h-157.423c-34.536 0-64.378 20.418-78.134 49.808 10.51-3.133 21.635-4.825 33.15-4.825z"/><path d="m424.68 121.049c11.514 0 22.639 1.691 33.149 4.824-13.755-29.39-43.598-49.808-78.133-49.808h-247.39c-34.536 0-64.378 20.418-78.133 49.808 10.51-3.133 21.635-4.824 33.149-4.824z"/></g></g></svg>