<svg viewBox="0 0 512 512" xmlns="http://www.w3.org/2000/svg"><g id="Layer_2" data-name="Layer 2"><g id="Layer_2_copy_7" data-name="Layer 2 copy 7"><g id="_50" data-name="50"><circle id="background" cx="256" cy="256" fill="#ff4d73" r="256"/><path d="m290.39 91c-31.41 0-60 13.39-81.68 35.38a85.36 85.36 0 0 0 -13.71-1.13c-52.7 0-95.41 48.18-95.41 107.61 0 42.14 21.49 78.6 52.78 96.26l-16 76.21a13 13 0 0 0 19.15 13.92l101.48-58.25a109.1 109.1 0 0 0 33.38 5.25c67.4 0 122-61.63 122-137.64s-54.59-137.61-121.99-137.61z" fill="#3be2f8"/><path d="m359.92 115.55c19.18 24.32 30.85 56.33 30.85 91.44 0 76-54.64 137.64-122 137.64a109.1 109.1 0 0 1 -33.38-5.25l-96.81 55.51-2.19 10.44a13 13 0 0 0 19.15 13.92l101.46-58.25a109.1 109.1 0 0 0 33.38 5.25c67.4 0 122-61.63 122-137.64.05-46.83-20.73-88.2-52.46-113.06z" fill="#0ea2d7"/><g fill="#e1fdff"><circle cx="193.45" cy="235.64" r="19.68"/><circle cx="256" cy="235.64" r="19.68"/><circle cx="318.55" cy="235.64" r="19.68"/></g><path id="border" d="m256 22a234.07 234.07 0 0 1 91.08 449.62 234.07 234.07 0 0 1 -182.16-431.24 232.48 232.48 0 0 1 91.08-18.38m0-22c-141.38 0-256 114.62-256 256s114.62 256 256 256 256-114.62 256-256-114.62-256-256-256z" fill="#b7003d"/></g></g></g></svg>